<svg xmlns="http://www.w3.org/2000/svg" viewBox="0 0 108 108" width="512" height="512">
  <!-- First Light logo, "Horizon". Same geometry as the Android adaptive icon. For README / store use. -->
  <defs>
    <linearGradient id="bg" x1="0" y1="0" x2="0" y2="1">
      <stop offset="0" stop-color="#2C205E"/>
      <stop offset="0.58" stop-color="#A8476F"/>
      <stop offset="1" stop-color="#F49D5F"/>
    </linearGradient>
    <radialGradient id="glow" cx="54" cy="72" r="46" gradientUnits="userSpaceOnUse">
      <stop offset="0" stop-color="#FFE1B0" stop-opacity="0.55"/>
      <stop offset="1" stop-color="#FFE1B0" stop-opacity="0"/>
    </radialGradient>
    <clipPath id="tile"><rect width="108" height="108" rx="24"/></clipPath>
  </defs>
  <g clip-path="url(#tile)">
    <rect width="108" height="108" fill="url(#bg)"/>
    <circle cx="54" cy="72" r="46" fill="url(#glow)"/>
    <rect y="72" width="108" height="36" fill="#2A1D3A" fill-opacity="0.5"/>
    <path d="M34,72 A20,20 0 0,1 74,72 Z" fill="#FFE1B0"/>
    <path d="M31.5,59 L24.6,55 M41,49.5 L37,42.6 M54,46 L54,38 M67,49.5 L71,42.6 M76.5,59 L83.4,55" fill="none" stroke="#FFE1B0" stroke-width="3" stroke-linecap="round"/>
    <path d="M20,72 L88,72" fill="none" stroke="#FFE1B0" stroke-width="2" stroke-linecap="round"/>
    <path d="M45,78 L63,78 M49,84 L59,84" fill="none" stroke="#FFE1B0" stroke-opacity="0.5" stroke-width="2" stroke-linecap="round"/>
  </g>
</svg>
